<svg width="512" height="512" xmlns="http://www.w3.org/2000/svg">

 <g>
  <title>background</title>
  <rect fill="none" id="canvas_background" height="402" width="582" y="-1" x="-1"/>
 </g>
 <g>
  <title>Layer 1</title>
  <path fill="#0088aa" id="svg_5" d="m256.001,501c-5.609,0 -11.205,-1.57 -16.107,-4.69l-220,-140c-8.654,-5.507 -13.894,-15.053 -13.894,-25.31l0,-150c0,-10.949 5.965,-21.029 15.564,-26.298c9.597,-5.269 21.304,-4.89 30.542,0.988l220,140c8.654,5.507 13.894,15.053 13.894,25.31l0,150c0,10.949 -5.966,21.029 -15.563,26.298c-4.505,2.473 -9.476,3.702 -14.436,3.702zm-190.001,-186.469l160,101.819l0,-78.881l-160,-101.819l0,78.881z"/>
  <path fill="#0088aa" id="svg_7" d="m255.999,501c-4.961,0 -9.93,-1.229 -14.435,-3.702c-9.599,-5.269 -15.564,-15.349 -15.564,-26.298l0,-150c0,-10.257 5.24,-19.803 13.894,-25.31l220,-140c9.238,-5.878 20.943,-6.256 30.543,-0.988c9.597,5.269 15.563,15.349 15.563,26.298l0,150c0,10.257 -5.24,19.803 -13.894,25.31l-220,140c-4.902,3.12 -10.499,4.69 -16.107,4.69zm30.001,-163.531l0,78.881l160,-101.818l0,-78.882l-160,101.819z"/>
  <path fill="#0088aa" id="svg_9" d="m35.999,361c-4.961,0 -9.93,-1.229 -14.435,-3.702c-9.599,-5.269 -15.564,-15.349 -15.564,-26.298l0,-150c0,-10.257 5.24,-19.803 13.894,-25.31l220,-140c9.238,-5.878 20.944,-6.256 30.543,-0.988c9.597,5.269 15.563,15.349 15.563,26.298l0,150c0,10.257 -5.24,19.803 -13.894,25.31l-220,140c-4.901,3.12 -10.499,4.69 -16.107,4.69zm30.001,-163.532l0,78.881l160,-101.818l0,-78.881l-160,101.818z"/>
  <path fill="#0088aa" id="svg_11" d="m476.001,361.786238c-5.608,0 -11.205,-1.57 -16.107,-4.69l-220,-140c-8.654,-5.507 -13.894,-15.053 -13.894,-25.31l0,-150c0,-10.949 5.965,-21.029 15.564,-26.298c9.598,-5.268 21.305,-4.891 30.542,0.988l220,140c8.654,5.507 13.894,15.053 13.894,25.31l0,150c0,10.949 -5.966,21.029 -15.563,26.298c-4.505,2.473 -9.476,3.702 -14.436,3.702zm-190.001,-186.468l160,101.818l0,-78.881l-160,-101.819l0,78.882z"/>
  <path id="svg_14" fill="#FFFFFF" d="m256,481c-1.87,0 -3.735,-0.523 -5.369,-1.563l-220,-140c-2.884,-1.836 -4.631,-5.018 -4.631,-8.437l0,-150c0,-3.65 1.988,-7.01 5.188,-8.766c3.2,-1.756 7.103,-1.629 10.181,0.33l220,140c2.884,1.836 4.631,5.018 4.631,8.437l0,150c0,3.649 -1.988,7.01 -5.188,8.766c-1.501,0.823 -3.159,1.233 -4.812,1.233zm-210,-155.489l200,127.272l0,-126.294l-200,-127.272l0,126.294z"/>
  <path id="svg_16" fill="#FFFFFF" d="m256,481c-1.653,0 -3.31,-0.409 -4.812,-1.234c-3.2,-1.756 -5.188,-5.116 -5.188,-8.766l0,-150c0,-3.419 1.747,-6.601 4.631,-8.437l220,-140c3.083,-1.959 6.982,-2.085 10.182,-0.33c3.199,1.757 5.187,5.117 5.187,8.767l0,150c0,3.419 -1.747,6.601 -4.631,8.437l-220,140c-1.635,1.04 -3.5,1.563 -5.369,1.563zm10,-154.511l0,126.294l200,-127.272l0,-126.294l-200,127.272z"/>
  <path id="svg_18" fill="#FFFFFF" d="m36,341c-1.653,0 -3.31,-0.409 -4.812,-1.234c-3.2,-1.756 -5.188,-5.117 -5.188,-8.766l0,-150c0,-3.419 1.747,-6.601 4.631,-8.437l220,-140c3.079,-1.96 6.982,-2.085 10.181,-0.33c3.2,1.757 5.188,5.117 5.188,8.767l0,150c0,3.419 -1.747,6.601 -4.631,8.437l-220,140c-1.634,1.04 -3.5,1.563 -5.369,1.563zm10,-154.511l0,126.294l200,-127.272l0,-126.294l-200,127.272z"/>
  <path id="svg_20" fill="#FFFFFF" d="m476,341c-1.869,0 -3.734,-0.523 -5.369,-1.563l-220,-140c-2.884,-1.836 -4.631,-5.018 -4.631,-8.437l0,-150c0,-3.65 1.988,-7.01 5.188,-8.766c3.2,-1.756 7.101,-1.629 10.181,0.33l220,140c2.884,1.835 4.631,5.018 4.631,8.437l0,150c0,3.649 -1.988,7.01 -5.188,8.766c-1.501,0.823 -3.159,1.233 -4.812,1.233zm-210,-155.489l200,127.272l0,-126.294l-200,-127.272l0,126.294z"/>
 </g>
</svg>