<svg width="24" height="24" xmlns="http://www.w3.org/2000/svg">

 <g>
  <title>background</title>
  <rect fill="none" id="canvas_background" height="402" width="582" y="-1" x="-1"/>
 </g>
 <g>
  <title>Layer 1</title>
  <path id="svg_2" fill="#04b6e2" d="m12,-0.00002c-6.6167,0 -12,5.3833 -12,12c0,5.73828 3.94971,10.78027 9.3916,11.98828c0.14746,0.03272 0.30274,-0.00342 0.42139,-0.09814c0.11816,-0.09522 0.18701,-0.23829 0.18701,-0.39014l0,-3c0,-0.27637 -0.22363,-0.5 -0.5,-0.5l-1,0c-1.18506,0 -2.24316,-1.46192 -3.09375,-2.63623c-0.08398,-0.11621 -0.16699,-0.23047 -0.24902,-0.34229c0.34912,0.16358 0.68994,0.33448 0.97314,0.47657c0.82031,0.41113 1.59522,0.7998 2.22901,0.98144c0.02783,0.00928 0.06201,0.02588 0.10009,0.04297c0.24414,0.10986 0.69776,0.31396 1.10449,0.04932c0.43604,-0.28223 0.43604,-0.87647 0.43604,-1.07178l0,-0.34863c0,-0.22364 -0.14844,-0.41993 -0.36377,-0.48096c-2.77295,-0.78565 -4.63623,-2.86328 -4.63623,-5.17041c0,-1.19971 0.49268,-2.34522 1.42529,-3.31201c0.14356,-0.14893 0.18067,-0.37012 0.09375,-0.55762c-0.37207,-0.80225 -0.29345,-1.89355 0.14844,-2.54883c0.5835,0.22754 1.34033,0.70459 1.83203,1.28858c0.13526,0.16015 0.35742,0.22021 0.5542,0.14746c1.875,-0.6875 4.01758,-0.6875 5.89258,0c0.19873,0.07373 0.41992,0.01318 0.5542,-0.14746c0.4917,-0.58399 1.24853,-1.06104 1.83203,-1.28858c0.44189,0.65528 0.52051,1.74658 0.14844,2.54883c-0.08692,0.1875 -0.04981,0.40869 0.09375,0.55762c0.93261,0.96679 1.42529,2.1123 1.42529,3.31201c0,2.42187 -2.06982,4.59082 -5.0332,5.27392c-0.15137,0.03516 -0.27784,0.13819 -0.34229,0.2793s-0.06006,0.3042 0.0127,0.44141c0.24756,0.46875 0.36279,1.10595 0.36279,2.00537l0,4c0,0.15185 0.06885,0.29492 0.18701,0.39014c0.08985,0.07177 0.2002,0.10986 0.31299,0.10986c0.03613,0 0.07227,-0.00391 0.1084,-0.01172c5.44189,-1.20801 9.3916,-6.25 9.3916,-11.98828c0,-6.6167 -5.3833,-12 -12,-12z"/>
  <path id="svg_3" opacity="0.2" fill="#FFFFFF" d="m9.63623,16.92035c0.21533,0.06103 0.36377,0.25732 0.36377,0.48096l0,-0.25c0,-0.22364 -0.14844,-0.41993 -0.36377,-0.48096c-2.72137,-0.77106 -4.55585,-2.78809 -4.62353,-5.04364c-0.00116,0.0415 -0.0127,0.0816 -0.0127,0.12323c0,2.30713 1.86328,4.38476 4.63623,5.17041z"/>
  <path id="svg_4" opacity="0.2" fill="#FFFFFF" d="m13.9668,17.02386c2.96338,-0.6831 5.0332,-2.85205 5.0332,-5.27392c0,-0.04279 -0.01178,-0.08405 -0.01306,-0.12671c-0.06983,2.37115 -2.10785,4.47931 -5.02014,5.15063c-0.15137,0.03516 -0.27784,0.13819 -0.34229,0.2793c-0.04822,0.10553 -0.0451,0.22077 -0.01642,0.33093c0.00721,-0.02685 0.0047,-0.05523 0.01642,-0.08093c0.06445,-0.14111 0.19092,-0.24414 0.34229,-0.2793z"/>
  <path id="svg_5" opacity="0.2" fill="#FFFFFF" d="m12,-0.00006c-6.6167,0 -12,5.3833 -12,12c0,0.04553 0.00531,0.09003 0.0058,0.13544c0.06238,-6.56354 5.41614,-11.88544 11.9942,-11.88544s11.93182,5.3219 11.9942,11.88544c0.00049,-0.04541 0.0058,-0.08991 0.0058,-0.13544c0,-6.6167 -5.3833,-12 -12,-12z"/>
  <path id="svg_6" opacity="0.1" fill="#010101" d="m9.3916,23.98826c0.14746,0.03272 0.30274,-0.00342 0.42139,-0.09814c0.11816,-0.09522 0.18701,-0.23829 0.18701,-0.39014l0,-0.25c0,0.15185 -0.06885,0.29492 -0.18701,0.39014c-0.11865,0.09472 -0.27393,0.13086 -0.42139,0.09814c-5.39874,-1.19842 -9.32379,-6.17126 -9.3858,-11.85284c-0.00037,0.03857 -0.0058,0.07592 -0.0058,0.11456c0,5.73828 3.94971,10.78027 9.3916,11.98828z"/>
  <path id="svg_7" opacity="0.1" fill="#010101" d="m14.6084,23.73826c-0.03613,0.00781 -0.07227,0.01172 -0.1084,0.01172c-0.11279,0 -0.22314,-0.03809 -0.31299,-0.10986c-0.11816,-0.09522 -0.18701,-0.23829 -0.18701,-0.39014l0,0.25c0,0.15185 0.06885,0.29492 0.18701,0.39014c0.08985,0.07177 0.2002,0.10986 0.31299,0.10986c0.03613,0 0.07227,-0.00391 0.1084,-0.01172c5.44189,-1.20801 9.3916,-6.25 9.3916,-11.98828c0,-0.03864 -0.00543,-0.07599 -0.0058,-0.11456c-0.06201,5.68158 -3.98706,10.65442 -9.3858,11.85284z"/>
  <path id="svg_8" opacity="0.1" fill="#010101" d="m17.33252,4.83442c-0.5835,0.22754 -1.34033,0.70459 -1.83203,1.28858c-0.13428,0.16064 -0.35547,0.22119 -0.5542,0.14746c-1.875,-0.6875 -4.01758,-0.6875 -5.89258,0c-0.19678,0.07275 -0.41894,0.01269 -0.5542,-0.14746c-0.4917,-0.58399 -1.24853,-1.06104 -1.83203,-1.28858c-0.25226,0.37409 -0.3703,0.89014 -0.36951,1.41358c0.0354,-0.43408 0.1579,-0.8498 0.36951,-1.16358c0.5835,0.22754 1.34033,0.70459 1.83203,1.28858c0.13526,0.16015 0.35742,0.22021 0.5542,0.14746c1.875,-0.6875 4.01758,-0.6875 5.89258,0c0.19873,0.07373 0.41992,0.01318 0.5542,-0.14746c0.4917,-0.58399 1.24853,-1.06104 1.83203,-1.28858c0.21161,0.31378 0.33411,0.7295 0.36951,1.16358c0.00079,-0.52344 -0.11725,-1.03949 -0.36951,-1.41358z"/>
 </g>
</svg>